<svg xmlns="http://www.w3.org/2000/svg" xmlns:xlink="http://www.w3.org/1999/xlink" width="10" height="10" viewBox="10 10 30 30"><defs><style>.a{fill:#F0F0F2}.b{fill:none;}.c{fill:#464b62;}.d{filter:url(#e);}.e{filter:url(#c);}.f{filter:url(#a);}</style><filter id="a" x="5" y="8.682" width="40.75" height="39" filterUnits="userSpaceOnUse"><feOffset dy="3" input="SourceAlpha"/><feGaussianBlur stdDeviation="3" result="b"/><feFlood flood-opacity="0.161"/><feComposite operator="in" in2="b"/><feComposite in="SourceGraphic"/></filter><filter id="c" x="15.341" y="13.242" width="28.712" height="32.059" filterUnits="userSpaceOnUse"><feOffset dy="3" input="SourceAlpha"/><feGaussianBlur stdDeviation="3" result="d"/><feFlood flood-opacity="0.161"/><feComposite operator="in" in2="d"/><feComposite in="SourceGraphic"/></filter><filter id="e" x="6.275" y="10.111" width="28.712" height="32.059" filterUnits="userSpaceOnUse"><feOffset dy="3" input="SourceAlpha"/><feGaussianBlur stdDeviation="3" result="f"/><feFlood flood-opacity="0.161"/><feComposite operator="in" in2="f"/><feComposite in="SourceGraphic"/></filter></defs><path class="a" d="M10,0H50V50H10A10,10,0,0,1,0,40V10A10,10,0,0,1,10,0Z"/><g class="f" transform="matrix(1, 0, 0, 1, 0, 0)"><path class="b" d="M64.494,64a6.729,6.729,0,0,0-5.119,2.4A6.729,6.729,0,0,0,54.256,64,6.185,6.185,0,0,0,48,70.295c0,4.348,3.866,7.837,9.723,13.218L59.375,85l1.652-1.488c5.857-5.381,9.723-8.87,9.723-13.218A6.185,6.185,0,0,0,64.494,64Z" transform="translate(-34 -49.32)"/></g><g transform="translate(15.275 16.111)"><g transform="translate(19.778 3.131) rotate(90)"><g class="e" transform="matrix(0, -1, 1, 0, -19.24, 35.05)"><path class="c" d="M8.7,0,7.73.974,11.416,4.66H0V6.052H11.416L7.73,9.738l.974.974,5.356-5.356Z" transform="translate(35.05 19.24) rotate(90)"/></g></g><g transform="translate(0 14.059) rotate(-90)"><g class="d" transform="matrix(0, 1, -1, 0, 30.17, -15.27)"><path class="c" d="M8.7,0,7.73.974,11.416,4.66H0V6.052H11.416L7.73,9.738l.974.974,5.356-5.356Z" transform="translate(15.27 30.17) rotate(-90)"/></g></g></g></svg>
