<svg xmlns="http://www.w3.org/2000/svg" width="7.261" height="9.544" viewBox="0 0 7.261 9.544"><defs><style>.a{fill:#606060;}</style></defs><g transform="translate(0 2.491)"><path class="a" d="M68.476,139.917l-.622-2.7a.622.622,0,0,0-.6-.471H66.04a2.6,2.6,0,0,0-.658-.725v-1.764a.626.626,0,0,0-.9-.557l-1.245.622a.617.617,0,0,0-.342.557v.8l-.012,0a2.593,2.593,0,1,0,3.532,2.313h.348l.5,2.226a.622.622,0,1,0,1.208-.3Zm-4.649.151a1.969,1.969,0,0,1-.932-3.7v.8a.621.621,0,1,0,1.243,0v-1.019a.308.308,0,0,0,.048.014,1.971,1.971,0,0,1-.359,3.91Z" transform="translate(-61.233 -133.638)"/></g><g transform="translate(2.697)"><g transform="translate(0)"><path class="a" d="M206.852,0a.934.934,0,1,0,.934.934A.935.935,0,0,0,206.852,0Z" transform="translate(-205.918)"/></g></g></svg>