<svg xmlns="http://www.w3.org/2000/svg" xmlns:xlink="http://www.w3.org/1999/xlink" width="40.75" height="39" viewBox="0 0 40.75 39"><defs><style>.a{fill:#BE1622;}.b{filter:url(#a);}</style><filter id="a" x="0" y="0" width="40.75" height="39" filterUnits="userSpaceOnUse"><feOffset dy="3" input="SourceAlpha"/><feGaussianBlur stdDeviation="3" result="b"/><feFlood flood-opacity="0.161"/><feComposite operator="in" in2="b"/><feComposite in="SourceGraphic"/></filter></defs><g class="b" transform="matrix(1, 0, 0, 1, 0, 0)"><path class="a" d="M64.494,64a6.729,6.729,0,0,0-5.119,2.4A6.729,6.729,0,0,0,54.256,64,6.185,6.185,0,0,0,48,70.295c0,4.348,3.866,7.837,9.723,13.218L59.375,85l1.652-1.488c5.857-5.381,9.723-8.87,9.723-13.218A6.185,6.185,0,0,0,64.494,64ZM60.075,82.009l-.23.213-.47.427-.47-.427-.23-.213a69.51,69.51,0,0,1-6.71-6.672c-1.531-1.9-2.209-3.451-2.209-5.042a4.549,4.549,0,0,1,1.3-3.243,4.451,4.451,0,0,1,3.2-1.3,5.016,5.016,0,0,1,3.779,1.777l1.34,1.591,1.34-1.591a5,5,0,0,1,3.779-1.777,4.472,4.472,0,0,1,3.21,1.3A4.558,4.558,0,0,1,69,70.295c0,1.586-.684,3.145-2.209,5.042A69.652,69.652,0,0,1,60.075,82.009Z" transform="translate(-39 -58)"/></g></svg>
