<svg xmlns="http://www.w3.org/2000/svg" width="20" height="14.995" viewBox="0 0 23 17.995"><defs><style></style></defs><g transform="translate(0.001 -66.585)"><path class="a" d="M19.4,76.768l3.541,7.275a.345.345,0,0,1-.336.538H.39a.345.345,0,0,1-.336-.538L3.6,76.768a.41.41,0,0,1,.336-.21H6.968a.425.425,0,0,1,.281.129c.206.238.416.471.625.7s.4.44.6.667h-3.6a.41.41,0,0,0-.336.21l-2.346,4.82H20.813l-2.346-4.82a.41.41,0,0,0-.336-.21H14.519c.2-.227.4-.448.6-.667s.421-.463.627-.7a.425.425,0,0,1,.281-.129h3.043A.41.41,0,0,1,19.4,76.768Zm-2.7-4.972c0,3.975-3.309,4.721-4.866,8.541a.372.372,0,0,1-.69,0c-1.4-3.444-4.233-4.389-4.774-7.457a5.323,5.323,0,0,1,4.612-6.268A5.211,5.211,0,0,1,16.706,71.8Zm-2.459,0A2.752,2.752,0,1,0,11.5,74.548,2.752,2.752,0,0,0,14.247,71.8Z"/></g></svg>
